<?xml version="1.0" standalone="no"?>
<!DOCTYPE svg PUBLIC "-//W3C//DTD SVG 20010904//EN"
 "http://www.w3.org/TR/2001/REC-SVG-20010904/DTD/svg10.dtd">
<svg version="1.0" xmlns="http://www.w3.org/2000/svg"
 width="253.000000pt" height="246.000000pt" viewBox="0 0 253.000000 246.000000"
 preserveAspectRatio="xMidYMid meet">
<metadata>
Created by potrace 1.16, written by Peter Selinger 2001-2019
</metadata>
<g transform="translate(0.000000,246.000000) scale(0.100000,-0.100000)"
fill="#000000" stroke="none">
<path d="M1041 2435 c-571 -117 -916 -476 -1021 -1064 -31 -178 -25 -319 24
-507 89 -342 397 -689 736 -829 91 -37 140 -44 159 -21 7 8 13 62 14 139 l2
124 -116 5 c-184 8 -250 47 -322 191 -27 54 -56 91 -102 135 -36 33 -65 65
-65 70 0 6 12 14 28 20 59 20 147 -29 204 -112 73 -107 156 -153 260 -144 88
7 108 22 145 111 18 44 30 83 27 88 -3 5 -18 9 -33 9 -46 0 -202 49 -258 81
-169 97 -256 266 -257 504 -1 128 22 218 76 300 l33 50 0 135 c0 96 5 147 15
175 15 39 16 40 62 38 55 -1 126 -26 235 -82 l78 -40 70 14 c118 25 287 30
393 11 141 -25 157 -23 263 33 110 58 211 83 235 59 37 -36 54 -185 33 -277
-9 -39 -7 -48 14 -80 82 -123 102 -202 95 -373 -6 -139 -27 -216 -83 -304 -77
-120 -203 -199 -374 -234 -51 -10 -95 -21 -98 -24 -3 -3 4 -17 16 -32 42 -53
51 -113 51 -338 0 -232 6 -259 53 -264 60 -7 264 91 398 193 235 176 413 454
469 730 6 33 16 68 21 77 13 25 12 388 -1 388 -5 0 -10 10 -10 23 0 13 -9 59
-21 103 -166 640 -811 1049 -1448 919z"/>
<path d="M617 484 c-8 -9 11 -44 23 -44 6 0 10 6 10 14 0 16 -24 38 -33 30z"/>
<path d="M700 421 c0 -12 29 -23 41 -15 5 3 7 10 4 15 -8 12 -45 12 -45 0z"/>
<path d="M804 416 c-9 -24 12 -44 28 -28 9 10 8 16 -5 29 -15 15 -17 15 -23
-1z"/>
<path d="M904 419 c-10 -17 13 -36 27 -22 12 12 4 33 -11 33 -5 0 -12 -5 -16
-11z"/>
</g>
</svg>
